<?xml version="1.0" encoding="UTF-8" standalone="no"?>
<svg
   xmlns:dc="http://purl.org/dc/elements/1.1/"
   xmlns:cc="http://creativecommons.org/ns#"
   xmlns:rdf="http://www.w3.org/1999/02/22-rdf-syntax-ns#"
   xmlns:svg="http://www.w3.org/2000/svg"
   xmlns="http://www.w3.org/2000/svg"
   xmlns:sodipodi="http://sodipodi.sourceforge.net/DTD/sodipodi-0.dtd"
   xmlns:inkscape="http://www.inkscape.org/namespaces/inkscape"
   width="139.86404mm"
   height="35.390667mm"
   viewBox="0 0 139.86404 35.390667"
   version="1.1"
   id="svg8"
   inkscape:version="1.0.2-2 (e86c870879, 2021-01-15)"
   sodipodi:docname="Sammlungen_Wortmarke_weiß.svg">
  <defs
     id="defs2">
    <style
       id="style833">.cls-1{fill:#1d1d1b;}</style>
  </defs>
  <sodipodi:namedview
     id="base"
     pagecolor="#ffffff"
     bordercolor="#666666"
     borderopacity="1.0"
     inkscape:pageopacity="0.0"
     inkscape:pageshadow="2"
     inkscape:zoom="0.7"
     inkscape:cx="324.96193"
     inkscape:cy="208.15835"
     inkscape:document-units="mm"
     inkscape:current-layer="layer1"
     inkscape:document-rotation="0"
     showgrid="false"
     fit-margin-top="0"
     fit-margin-left="0"
     fit-margin-right="0"
     fit-margin-bottom="0"
     inkscape:window-width="1920"
     inkscape:window-height="1017"
     inkscape:window-x="1912"
     inkscape:window-y="-8"
     inkscape:window-maximized="1" />
  <metadata
     id="metadata5">
    <rdf:RDF>
      <cc:Work
         rdf:about="">
        <dc:format>image/svg+xml</dc:format>
        <dc:type
           rdf:resource="http://purl.org/dc/dcmitype/StillImage" />
        <dc:title></dc:title>
      </cc:Work>
    </rdf:RDF>
  </metadata>
  <g
     inkscape:label="Ebene 1"
     inkscape:groupmode="layer"
     id="layer1"
     transform="translate(-32.121552,-68.483238)">
    <g
       id="g875"
       transform="matrix(0.26458333,0,0,0.26458333,-10.770052,5.0096975)"
       style="fill:#ffffff">
      <path
         class="cls-1"
         d="M 407.79,300.73 V 244.9 h -9.46 v 56.58 q 0,6.39 3.54,9.1 a 13.33,13.33 0 0 0 8.53,2.66 h 4.22 v -9.18 h -3.28 q -3.55,0 -3.55,-3.33"
         id="path839"
         style="fill:#ffffff" />
      <path
         class="cls-1"
         d="m 231.48,288.49 c 0,0.9 0.05,2.13 0.14,3.68 a 36.39,36.39 0 0 1 -10.47,11.5 28.37,28.37 0 0 1 -8.8,-21.29 20.38,20.38 0 0 1 1.28,-7.36 17.14,17.14 0 0 1 3.8,-5.89 33,33 0 0 0 6.55,2.25 21,21 0 0 0 6.07,0.9 c 2,-0.12 3.11,-0.18 3.32,-0.18 a 70.6,70.6 0 0 0 -1.89,16.39 M 242,302 q -1.35,-4.55 -1.35,-13.84 a 124.27,124.27 0 0 1 1.71,-17.2 q 0.76,-0.18 2.07,-0.54 l 0.62,-0.18 a 20.34,20.34 0 0 0 3.24,-7.95 51.37,51.37 0 0 1 -13.7,2.2 38.39,38.39 0 0 1 -6.33,-0.56 58.41,58.41 0 0 1 -7,-1.64 61.91,61.91 0 0 0 -12.89,13.32 Q 204,282 204,288 a 31.05,31.05 0 0 0 4.29,15.57 q 4.29,7.51 10.71,10.75 7,-5.79 12.8,-17.47 0.81,12 5.86,17.47 4,-6.74 13.14,-14.37 l -2,-2.34 A 28.18,28.18 0 0 1 242,302"
         id="path841"
         style="fill:#ffffff" />
      <path
         class="cls-1"
         d="m 378.17,262.37 c -4.89,0 -8.83,3.26 -11.61,6.33 a 9.53,9.53 0 0 0 -8.93,-6.33 c -4.8,0 -8.93,3.26 -11.61,6.43 v -5.47 h -6.34 v 49.91 h 6.91 v -39.93 c 1.83,-2.21 4.22,-5.18 8.45,-5.18 3.64,0 5.47,1.53 5.47,6.71 v 38.4 h 6.91 v -39.93 c 2.11,-2.21 4.51,-5.18 8.74,-5.18 3.64,0 5.18,1.53 5.18,6.71 v 38.4 h 6.91 v -39.36 c 0,-7.1 -3.55,-11.51 -10.08,-11.51"
         id="path843"
         style="fill:#ffffff" />
      <path
         class="cls-1"
         d="m 329.13,262.81 q -3.25,0 -8.91,3.44 a 44.84,44.84 0 0 0 -11,9.81 q -0.88,1.06 -2.88,3 c -0.71,0.75 -2,2.2 -4,4.37 L 296,291 l 0.37,-1 2.88,-5.5 q 7.19,-13.31 7.18,-18.68 a 2.84,2.84 0 0 0 -0.81,-2.19 4.24,4.24 0 0 0 -2.94,-1.12 15.83,15.83 0 0 0 -5.25,1.18 18.3,18.3 0 0 0 -5.68,3.38 106.83,106.83 0 0 0 -10.25,10.25 q -5.37,6.3 -8.81,9.93 0.62,-1.5 2.69,-5.62 7.31,-14.31 7.31,-16.5 a 2.34,2.34 0 0 0 -0.91,-1.75 3.3,3.3 0 0 0 -2.28,-0.81 7.66,7.66 0 0 0 -3.12,0.69 30.61,30.61 0 0 0 -6.57,4 69,69 0 0 0 -6.25,5.93 29.89,29.89 0 0 0 -3.87,5.19 c 0.79,0.12 1.59,0.23 2.38,0.31 0.42,-0.46 0.83,-1 1.25,-1.5 a 40.09,40.09 0 0 1 7.45,-7.25 c 1.59,-1.21 2.76,-1.81 3.51,-1.81 l 0.87,0.25 a 4.23,4.23 0 0 1 -0.25,1.33 l -11.13,21.8 q -9.88,19 -10.27,19.62 a 5.38,5.38 0 0 0 -0.94,2.5 l 0.26,0.88 a 5.68,5.68 0 0 0 1.62,0.24 25.58,25.58 0 0 0 2.75,-0.18 12.74,12.74 0 0 0 2.44,-2.76 c 0.5,-1 1.49,-2.69 3,-5.22 1.51,-2.53 2.28,-3.9 2.4,-4.15 a 193.84,193.84 0 0 1 11.44,-15.94 q 1.13,-1.42 10.12,-11 5.19,-5.55 8.06,-7.06 a 6.73,6.73 0 0 1 2.94,-1.12 1.11,1.11 0 0 1 0.94,0.56 2.78,2.78 0 0 1 0.62,1.81 5.68,5.68 0 0 1 -0.18,1.44 44.78,44.78 0 0 1 -2.63,6.41 q -2.06,4.34 -8.67,16.46 -6.61,12.12 -9.67,16.93 a 12.77,12.77 0 0 0 -1.75,3.69 12.21,12.21 0 0 0 3.3,0.37 19,19 0 0 0 2.68,-0.19 15,15 0 0 0 2.93,-3.94 126.23,126.23 0 0 1 13.56,-19.81 q 5,-5.93 14.49,-16.06 a 38,38 0 0 1 8.44,-7.06 5.07,5.07 0 0 1 2.25,-0.75 1.4,1.4 0 0 1 1.06,0.47 1.6,1.6 0 0 1 0.44,1.16 c 0,0.62 -0.79,2.75 -2.37,6.37 q -1.63,3.69 -10,17.25 l -10.38,16.81 c -1.16,1.92 -1.83,3.05 -2,3.41 a 3.07,3.07 0 0 0 -0.26,1.34 3,3 0 0 0 2.25,1 q 5.44,0 12.22,-4.47 6.78,-4.47 9.78,-9.53 l -1.93,-0.5 a 71.25,71.25 0 0 1 -10,7.94 10.08,10.08 0 0 1 -2.32,1.25 0.84,0.84 0 0 1 -0.43,-0.63 c 0,-1.5 1.2,-3.45 3.62,-5.87 a 28.81,28.81 0 0 0 3.5,-5.19 l 3.12,-4.94 q 1.63,-2.69 4.69,-8.24 5.31,-9.69 5.44,-10 a 39,39 0 0 0 2,-5.56 11.35,11.35 0 0 0 0.25,-2.38 4.12,4.12 0 0 0 -1.06,-3 3.32,3.32 0 0 0 -2.44,-1.09"
         id="path845"
         style="fill:#ffffff" />
      <path
         class="cls-1"
         d="m 603.17,263.88 a 4.86,4.86 0 0 1 4.79,3.4 q 1.37,3.39 1.25,12.11 h -14 q 1,-15.51 8,-15.51 m 20,34.77 c -0.38,0 -0.88,0.72 -1.48,2.17 a 17.59,17.59 0 0 1 -5.65,7.06 12.74,12.74 0 0 1 -7.69,2.74 11,11 0 0 1 -8.09,-3.3 q -5.6,-5.55 -5.59,-18.84 0,-2.84 0.34,-6.93 4.34,-0.23 7.18,-0.23 18.47,-0.15 21.09,-0.45 a 36.43,36.43 0 0 0 -0.68,-4.9 16.31,16.31 0 0 0 -7.41,-10.15 23,23 0 0 0 -12.43,-3.19 23.8,23.8 0 0 0 -17.89,7.47 q -7.19,7.45 -7.18,18.63 0,11.4 7.4,18.7 7.4,7.3 18.87,7.29 10.26,0 16.64,-8.78 3,-4.1 3,-6.61 c 0,-0.45 -0.15,-0.68 -0.45,-0.68"
         id="path847"
         style="fill:#ffffff" />
      <path
         class="cls-1"
         d="m 686.85,298.48 v -14.76 q 0,-11.24 -4.28,-16.51 a 14.2,14.2 0 0 0 -11.65,-5.21 17.39,17.39 0 0 0 -5.4,0.76 21.52,21.52 0 0 0 -4.19,1.85 16.26,16.26 0 0 0 -3.19,2.38 c -0.9,0.87 -1.71,1.66 -2.43,2.39 v -6.12 H 631.05 V 278 h 4 v 20.52 h -4 v 14.76 h 28.62 v -14.8 h -4 v -14.76 c 0,-2 0.43,-3.51 1.3,-4.41 a 6.35,6.35 0 0 1 7.83,0 6.22,6.22 0 0 1 1.31,4.41 v 14.76 h -4 v 14.76 h 28.62 v -14.76 z"
         id="path849"
         style="fill:#ffffff" />
      <path
         class="cls-1"
         d="m 546.36,298.63 c -1.77,1.63 -3.18,2.89 -4.21,3.79 a 5.09,5.09 0 0 1 -2.92,1.46 c -0.83,0 -1.24,-0.48 -1.24,-1.46 q 0,-3.63 4.78,-11.33 A 76.69,76.69 0 0 1 554.1,277 q 6.55,-6.45 10.71,-6.45 c 1.11,0 1.67,0.24 1.67,0.73 a 0.56,0.56 0 0 1 -0.11,0.41 101.37,101.37 0 0 1 -10.92,16.54 114.58,114.58 0 0 1 -9.09,10.45 m -29.07,60.78 -0.72,1 a 14.2,14.2 0 0 1 -1.77,2 c -0.69,0.66 -1.22,1 -1.56,1 -0.34,0 -0.63,-0.59 -0.63,-1.77 a 23.17,23.17 0 0 1 2,-8.27 65.32,65.32 0 0 1 3.12,-7 c 0.76,-1.35 1.42,-2.44 2,-3.27 q 6.55,-10.6 19.66,-21.94 -13.39,24.69 -22.1,38.2 M 577,284.64 a 0.87,0.87 0 0 0 -0.52,0.32 q -6.13,7 -10.71,11.75 -4.26,3.84 -10.81,9.15 1.24,-2.19 4.21,-7.33 c 2,-3.44 3.24,-5.67 3.79,-6.71 q 2.4,-4.26 13.52,-24.75 a 11.21,11.21 0 0 0 1.46,-4.37 c 0,-0.69 -0.25,-1 -0.73,-1 -1,0 -2.26,0.71 -3.85,2.13 a 31.75,31.75 0 0 0 -3.38,3.38 c -0.66,0.84 -1.19,1.53 -1.61,2.08 a 0.84,0.84 0 0 1 -0.52,0.31 1.77,1.77 0 0 1 -0.57,-0.31 7.24,7.24 0 0 0 -1.56,-0.67 8.51,8.51 0 0 0 -2.65,-0.37 q -7.9,0 -16.69,7.7 a 64.12,64.12 0 0 0 -14.3,17.88 q -5.52,10.2 -5.51,17.68 c 0,2 0.69,3 2.08,3 1.39,0 3.6,-1 6.44,-3.12 l 2.6,-2.08 q 2.61,-2.19 6.82,-6.14 a 102.88,102.88 0 0 0 7.43,-7.69 l 1,-0.73 a 3.2,3.2 0 0 1 -0.42,1.14 L 542,316.26 q -16.95,13.94 -25,27.14 -7.58,12.48 -7.59,23.08 c 0,4.79 0.84,7.18 2.5,7.18 q 1.56,0 4.16,-2.76 a 44.34,44.34 0 0 0 3.74,-4.37 c 0.77,-1.07 1.39,-2 1.87,-2.75 q 7.61,-11.13 27.66,-48 l 2.71,-5 q 11.22,-8.73 15.6,-13.3 3.32,-3.54 7.9,-8.53 a 6,6 0 0 0 1.56,-3.85 q 0,-0.42 -0.21,-0.42"
         id="path851"
         style="fill:#ffffff" />
      <polygon
         class="cls-1"
         points="485.97,313.24 494.43,313.24 494.43,271.05 512.35,271.05 512.35,313.24 521.26,313.24 521.26,263.04 485.97,263.04 "
         id="polygon853"
         style="fill:#ffffff" />
      <path
         class="cls-1"
         d="m 431.56,266.14 h 10.22 v 26.8 c 0,4.83 1.75,8.33 7.07,8.33 5.32,0 7.14,-3.5 7.14,-8.33 v -26.8 h 10.29 v 27.78 c 0,11.62 -9.52,16 -17.43,16 -7.91,0 -17.29,-4.34 -17.29,-16 z m -8.33,47.1 h 51.37 v -51.37 h -51.37 z"
         id="path855"
         style="fill:#ffffff" />
      <path
         class="cls-1"
         d="m 179.4,312.21 c -11.08,0 -14.27,-7.69 -14.27,-19.76 h 2.09 c 0,7.46 1.31,17.89 12.18,17.89 8.45,0 12.62,-5 12.62,-13.39 0,-6.15 -6.47,-13.17 -11.63,-17.45 h 0.11 c -6.8,-4.94 -14.6,-12.62 -14.6,-21.51 0,-8.46 5.27,-15.15 14,-15.15 11,0 13.28,7.58 13.28,19 h -1.87 c -0.1,-7.57 -0.77,-17 -11.41,-17 -8,0 -12.18,6.25 -12.18,13.72 0,14.92 26.23,22.28 26.23,38.3 0,9.77 -4.72,15.37 -14.6,15.37 m 3.29,-37.43 v 0.11 c -5.92,-5.27 -11.85,-10.31 -11.85,-16.35 0,-5.82 3.07,-10.65 9.11,-10.65 7.79,0 8.34,8.34 8.34,16.9 h 8 c 0,-13.82 -1.54,-24.91 -16.36,-24.91 -10.65,0 -17.12,7.9 -17.12,18.11 0,10.21 8.45,18.65 15.8,23.92 l -0.1,-0.1 c 4.6,3.84 10.42,9.32 10.42,15.14 0,6.37 -3.18,10.32 -9.55,10.32 -8.12,0 -9.22,-7.69 -9.22,-17.89 h -8 c 0,16.9 3.51,25.9 17.23,25.9 11.86,0 17.56,-6.81 17.56,-18.44 0,-9.11 -7.13,-15.7 -14.27,-22.06"
         id="path857"
         style="fill:#ffffff" />
    </g>
  </g>
</svg>
